<?xml version="1.0" encoding="UTF-8"?>
<svg width="270px" height="213px" viewBox="0 0 270 213" version="1.1" xmlns="http://www.w3.org/2000/svg" xmlns:xlink="http://www.w3.org/1999/xlink">
    <title>Group 2</title>
    <defs>
        <linearGradient x1="50%" y1="0%" x2="50%" y2="387.451845%" id="linearGradient-1">
            <stop stop-color="#00E7BF" offset="0%"></stop>
            <stop stop-color="#008971" offset="100%"></stop>
        </linearGradient>
        <rect id="path-2" x="0" y="0" width="249" height="194" rx="9"></rect>
        <filter x="-2.8%" y="-2.6%" width="105.6%" height="107.2%" filterUnits="objectBoundingBox" id="filter-3">
            <feOffset dx="0" dy="2" in="SourceAlpha" result="shadowOffsetOuter1"></feOffset>
            <feGaussianBlur stdDeviation="2" in="shadowOffsetOuter1" result="shadowBlurOuter1"></feGaussianBlur>
            <feColorMatrix values="0 0 0 0 0   0 0 0 0 0   0 0 0 0 0  0 0 0 0.5 0" type="matrix" in="shadowBlurOuter1"></feColorMatrix>
        </filter>
    </defs>
    <g id="Page-1" stroke="none" stroke-width="1" fill="none" fill-rule="evenodd">
        <g id="Reporting---LANDING-PAGE-with-popout" transform="translate(-1047.000000, -238.000000)">
            <g id="Group-2" transform="translate(1047.000000, 238.000000)">
                <g id="Rectangle-Copy" transform="translate(10.000000, 6.000000)">
                    <use fill="black" fill-opacity="1" filter="url(#filter-3)" xlink:href="#path-2"></use>
                    <use fill="url(#linearGradient-1)" fill-rule="evenodd" xlink:href="#path-2"></use>
                </g>
                <g id="Environmental-report-icon" transform="translate(80.000000, 44.000000)" fill="#FFFFFF" fill-rule="nonzero">
                    <g id="noun_Green-economy_581638">
                        <path d="M21.4232051,117.941 C18.7098718,117.941 16.5070513,115.8878 16.5070513,113.370467 L16.5070513,96.5934889 C16.5070513,94.0761556 18.7098718,92.0229556 21.4232051,92.0229556 L31.2555128,92.0229556 C33.9632051,92.0229556 36.1716667,94.0761556 36.1716667,96.5934889 L36.1716667,113.371778 C36.1716667,115.889111 33.9632051,117.942311 31.2555128,117.942311 L21.4232051,117.942311 L21.4232051,117.941 Z M70.5847436,117.941 C67.8714103,117.941 65.6685897,115.8878 65.6685897,113.370467 L65.6685897,92.0229556 C65.6685897,89.5056222 67.8714103,87.4524222 70.5847436,87.4524222 L80.4170513,87.4524222 C83.1247436,87.4524222 85.3332051,89.5056222 85.3332051,92.0229556 L85.3332051,113.371778 C85.3332051,115.889111 83.1247436,117.942311 80.4170513,117.942311 L70.5847436,117.942311 L70.5847436,117.941 Z M95.1655128,117.941 C92.4521795,117.941 90.249359,115.8878 90.249359,113.370467 L90.249359,73.7408222 C90.249359,71.2234889 92.4521795,69.1702889 95.1655128,69.1702889 L104.997821,69.1702889 C107.705513,69.1702889 109.913974,71.2234889 109.913974,73.7408222 L109.913974,113.371778 C109.913974,115.889111 107.705513,117.942311 104.997821,117.942311 L95.1655128,117.942311 L95.1655128,117.941 Z M100.080256,43.4200667 C95.1598718,43.4200667 91.1702564,47.1292 91.1702564,51.7036667 C91.1702564,52.5296667 91.3042308,53.3255111 91.5467949,54.0794 L78.6965385,65.8086 C77.7037179,65.4532889 76.6291026,65.2500667 75.5008974,65.2500667 C73.0230769,65.2500667 70.7821795,66.1927556 69.1674359,67.7110222 L59.7892308,64.6574444 C59.3971795,60.6533111 55.9434615,57.4764889 51.6224359,57.1631333 C50.8482051,57.7465778 49.9978205,58.292 49.0501282,58.7876 C49.0571795,58.8702 49.0628205,58.9475556 49.065641,59.0222889 C49.1008974,59.8338667 49.3674359,62.245 49.6748718,65.0389778 C50.0217949,68.1948222 50.3221795,71.0582889 50.5788462,73.6752667 C50.6944872,73.6792 50.8044872,73.7014889 50.9201282,73.7014889 C53.2583333,73.7014889 55.379359,72.8571333 56.9687179,71.4883333 L66.6811538,74.6507333 C67.2678205,78.6981333 70.9880769,81.8212 75.5023077,81.8212 C80.4226923,81.8212 84.4123077,78.1120667 84.4123077,73.5376 C84.4123077,72.7181556 84.2797436,71.9288667 84.0414103,71.1828444 L96.9071795,59.4405333 C97.894359,59.7919111 98.9619231,59.9912 100.081667,59.9912 C105.003462,59.9912 108.991667,56.2820667 108.991667,51.7076 C108.991667,47.1292 105.002051,43.4200667 100.080256,43.4200667 Z M38.9653846,66.9571333 L31.8985897,70.1339556 C30.3741026,68.9998444 28.4434615,68.3167556 26.3379487,68.3167556 C21.4161538,68.3167556 17.4279487,72.0258889 17.4279487,76.6003556 C17.4279487,81.1748222 21.4175641,84.8839556 26.3379487,84.8839556 C31.2033333,84.8839556 35.150641,81.2574222 35.2394872,76.7537556 L39.5562821,74.8133111 C39.5012821,72.3576 39.319359,69.7275111 38.9653846,66.9571333 Z M76.2610256,0.367111111 C56.6485897,5.88033333 46.9347436,15.0227111 42.8153846,22.5340667 C46.1732051,25.5548667 48.6608974,28.4878222 50.484359,31.0733333 C52.525,25.7856222 56.534359,18.1785556 64.3965385,10.7117778 C56.9376923,19.8934889 53.9239744,29.0961778 52.6716667,34.5228667 C53.7547436,36.4384 54.5966667,38.3618 55.2383333,40.2419333 C59.3830769,42.0119333 69.9501282,41.2790222 72.7565385,32.3005333 C77.7135897,16.4400222 72.0669231,9.14631111 76.2610256,0.367111111 Z M55.8362821,78.3113556 L46.5173077,78.3113556 C45.7698718,69.7930667 44.6698718,61.2446222 44.5796154,59.1927333 C44.5626923,58.7876 44.2665385,57.0359556 44.2228205,56.3096 C44.0084615,56.2479778 49.8708974,54.7874 51.6266667,50.3951778 C54.4542308,43.3230444 45.7585897,17.4928444 0.573974359,7.17046667 C6.97935897,18.8708222 -0.163589744,29.2023778 7.82833333,50.5197333 C10.950641,58.8479111 18.8861538,61.5592889 25.3,61.5592889 C29.9651282,61.5592889 33.825,60.1249333 34.4398718,58.3732889 C35.3776923,56.8445333 36.1984615,54.8136222 35.2761538,51.7272667 C33.0705128,44.3483333 28.2051282,32.2520222 17.5633333,20.4952889 C36.1660256,36.3938222 40.6210256,53.5588889 41.3501282,56.3214 C41.3670513,56.3214 42.1285897,59.0904667 42.1342308,59.0904667 C42.1342308,59.0904667 42.1342308,59.0891556 42.1342308,59.0878444 C43.7715385,66.4051556 44.1903846,73.0852667 44.0352564,78.6994444 C42.3020513,79.4074444 41.0878205,81.0148667 41.0878205,82.8818889 L41.0878205,113.371778 C41.0878205,115.889111 43.290641,117.942311 46.0039744,117.942311 L55.8362821,117.942311 C58.5439744,117.942311 60.7524359,115.889111 60.7524359,113.371778 L60.7524359,82.8818889 C60.7524359,80.3632444 58.5439744,78.3113556 55.8362821,78.3113556 Z" id="Shape"></path>
                        <rect id="Rectangle" x="20" y="94" width="13" height="21" rx="2"></rect>
                        <rect id="Rectangle-Copy-3" x="69" y="90" width="13" height="25" rx="2"></rect>
                        <rect id="Rectangle-Copy-2" x="44" y="81" width="14" height="34" rx="2"></rect>
                        <rect id="Rectangle-Copy-4" x="93" y="72" width="14" height="43" rx="2"></rect>
                    </g>
                </g>
                <rect id="Rectangle" fill="#FFFFFF" opacity="0.903274891" x="0" y="0" width="270" height="213"></rect>
            </g>
        </g>
    </g>
</svg>