<?xml version="1.0" encoding="UTF-8"?>
<svg width="257px" height="202px" viewBox="0 0 257 202" version="1.1" xmlns="http://www.w3.org/2000/svg" xmlns:xlink="http://www.w3.org/1999/xlink">
    <title>Group 3</title>
    <defs>
        <linearGradient x1="50%" y1="0%" x2="50%" y2="204.635354%" id="linearGradient-1">
            <stop stop-color="#303B63" offset="0%"></stop>
            <stop stop-color="#1C233B" offset="100%"></stop>
        </linearGradient>
        <rect id="path-2" x="0" y="0" width="249" height="194" rx="9"></rect>
        <filter x="-2.8%" y="-2.6%" width="105.6%" height="107.2%" filterUnits="objectBoundingBox" id="filter-3">
            <feOffset dx="0" dy="2" in="SourceAlpha" result="shadowOffsetOuter1"></feOffset>
            <feGaussianBlur stdDeviation="2" in="shadowOffsetOuter1" result="shadowBlurOuter1"></feGaussianBlur>
            <feColorMatrix values="0 0 0 0 0   0 0 0 0 0   0 0 0 0 0  0 0 0 0.5 0" type="matrix" in="shadowBlurOuter1"></feColorMatrix>
        </filter>
    </defs>
    <g id="Page-1" stroke="none" stroke-width="1" fill="none" fill-rule="evenodd">
        <g id="Reporting---LANDING-PAGE" transform="translate(-613.000000, -234.000000)">
            <g id="Group-3" transform="translate(617.000000, 236.000000)">
                <g id="Rectangle-Copy">
                    <use fill="black" fill-opacity="1" filter="url(#filter-3)" xlink:href="#path-2"></use>
                    <use fill="url(#linearGradient-1)" fill-rule="evenodd" xlink:href="#path-2"></use>
                </g>
                <g id="Usage-icon-Copy" transform="translate(67.000000, 38.000000)" fill="#FFFFFF" fill-rule="nonzero">
                    <path d="M113.083333,113.707317 L113.083333,38 C113.083333,33.581722 109.501611,30 105.083333,30 L98.0833333,30 C93.6650553,30 90.0833333,33.581722 90.0833333,38 L90.0833333,113.707317 L90.0833333,113.707317 L84.3333333,113.707317 L84.3333333,55.1707317 C84.3333333,50.7524537 80.7516113,47.1707317 76.3333333,47.1707317 L69.3333333,47.1707317 C64.9150553,47.1707317 61.3333333,50.7524537 61.3333333,55.1707317 L61.3333333,113.707317 L61.3333333,113.707317 L55.5833333,113.707317 L55.5833333,72.3414634 C55.5833333,67.9231854 52.0016113,64.3414634 47.5833333,64.3414634 L40.5833333,64.3414634 C36.1650553,64.3414634 32.5833333,67.9231854 32.5833333,72.3414634 L32.5833333,113.707317 L32.5833333,113.707317 L26.8333333,113.707317 L26.8333333,91.6585366 C26.8333333,87.2402586 23.2516113,83.6585366 18.8333333,83.6585366 L11.8333333,83.6585366 C7.41505533,83.6585366 3.83333333,87.2402586 3.83333333,91.6585366 L3.83333333,113.707317 L3.83333333,113.707317 L1.91666667,113.707317 C0.858666667,113.707317 0,114.666732 0,115.853659 C0,117.040585 0.858666667,118 1.91666667,118 L3.83333333,118 L26.8333333,118 L32.5833333,118 L55.5833333,118 L61.3333333,118 L84.3333333,118 L90.0833333,118 L113.083333,118 C114.141333,118 115,117.040585 115,115.853659 C115,114.666732 114.141333,113.707317 113.083333,113.707317 Z M7.66666667,113.707317 L7.66666667,91.9512195 C7.66666667,89.7420805 9.45752767,87.9512195 11.6666667,87.9512195 L19,87.9512195 C21.209139,87.9512195 23,89.7420805 23,91.9512195 L23,113.707317 L23,113.707317 L7.66666667,113.707317 Z M36.4166667,113.707317 L36.4166667,72.6341463 C36.4166667,70.4250073 38.2075277,68.6341463 40.4166667,68.6341463 L47.75,68.6341463 C49.959139,68.6341463 51.75,70.4250073 51.75,72.6341463 L51.75,113.707317 L51.75,113.707317 L36.4166667,113.707317 Z M65.1666667,113.707317 L65.1666667,55.4634146 C65.1666667,53.2542756 66.9575277,51.4634146 69.1666667,51.4634146 L76.5,51.4634146 C78.709139,51.4634146 80.5,53.2542756 80.5,55.4634146 L80.5,113.707317 L80.5,113.707317 L65.1666667,113.707317 Z M93.9166667,113.707317 L93.9166667,38.2926829 C93.9166667,36.0835439 95.7075277,34.2926829 97.9166667,34.2926829 L105.25,34.2926829 C107.459139,34.2926829 109.25,36.0835439 109.25,38.2926829 L109.25,113.707317 L109.25,113.707317 L93.9166667,113.707317 Z" id="Shape"></path>
                    <path d="M8.90631353,54 C9.22808178,54 9.55746586,53.9083306 9.85638667,53.7143327 L78.9109013,9.07348558 L74.5889253,19.7113952 C74.1529198,20.7837135 74.5755976,22.047898 75.5332865,22.5339588 C75.7884164,22.6661332 76.0568739,22.7258249 76.3215236,22.7258249 C77.0450262,22.7258249 77.7361615,22.2610825 78.0560258,21.4765634 L84.8379107,4.78421221 C84.8588542,4.73091607 84.8550463,4.67335624 84.8721819,4.61792825 C84.908357,4.50494044 84.9369163,4.39621631 84.9559558,4.27683296 C84.9654756,4.21714128 84.9959389,4.16810883 85,4.10628531 C85.0016507,4.08070316 84.992131,4.0593847 84.9940349,4.03380256 C84.9978428,3.95279242 84.990227,3.87817783 84.9864191,3.79716769 C84.9807072,3.67991619 84.9635717,3.56906021 84.9407242,3.45180871 C84.9254926,3.37079857 84.9216847,3.28765659 84.8969333,3.20877831 C84.8740858,3.13203186 84.8341028,3.0680765 84.8036395,2.9934619 C84.7788881,2.94442945 84.7788881,2.88686962 84.7522327,2.83570532 C84.7255774,2.78454103 84.6798825,2.75469519 84.6494192,2.70566274 C84.6094362,2.63957553 84.5789729,2.56922462 84.5313741,2.50953294 C84.4818712,2.44557758 84.4190408,2.40080882 84.3619221,2.34324899 C84.28386,2.2643707 84.2057979,2.19188795 84.118216,2.12793258 C84.0591934,2.08529567 84.0058827,2.03839506 83.9411483,2.00215369 C83.9202048,1.99149446 83.908781,1.97017601 83.8878375,1.95951678 C83.8402387,1.93606648 83.7888319,1.94033017 83.7412331,1.92114356 C83.6365156,1.87850664 83.5337021,1.84866081 83.4251767,1.82734235 C83.3756739,1.81668312 83.3356908,1.78470544 83.2842841,1.78044175 L66.9826283,0.0110098882 C65.9259337,-0.108373466 65.0044199,0.757155852 64.9035103,1.92540725 C64.8006968,3.09792233 65.5679903,4.14039484 66.6132611,4.25338266 L77.0012352,5.38112898 L7.95243248,50.0219761 C7.04043842,50.6103655 6.73009388,51.915055 7.25558524,52.9340772 C7.60781677,53.6183996 8.24754538,54 8.90631353,54 Z" id="Path"></path>
                </g>
            </g>
        </g>
    </g>
</svg>