<?xml version="1.0" encoding="UTF-8"?>
<svg width="257px" height="202px" viewBox="0 0 257 202" version="1.1" xmlns="http://www.w3.org/2000/svg" xmlns:xlink="http://www.w3.org/1999/xlink">
    <title>Group 2</title>
    <defs>
        <linearGradient x1="50%" y1="0%" x2="50%" y2="100%" id="linearGradient-1">
            <stop stop-color="#00BEF4" offset="0%"></stop>
            <stop stop-color="#0093E3" offset="100%"></stop>
        </linearGradient>
        <rect id="path-2" x="0" y="0" width="249" height="194" rx="9"></rect>
        <filter x="-2.8%" y="-2.6%" width="105.6%" height="107.2%" filterUnits="objectBoundingBox" id="filter-3">
            <feOffset dx="0" dy="2" in="SourceAlpha" result="shadowOffsetOuter1"></feOffset>
            <feGaussianBlur stdDeviation="2" in="shadowOffsetOuter1" result="shadowBlurOuter1"></feGaussianBlur>
            <feColorMatrix values="0 0 0 0 0   0 0 0 0 0   0 0 0 0 0  0 0 0 0.5 0" type="matrix" in="shadowBlurOuter1"></feColorMatrix>
        </filter>
    </defs>
    <g id="Page-1" stroke="none" stroke-width="1" fill="none" fill-rule="evenodd">
        <g id="Reporting---LANDING-PAGE" transform="translate(-195.000000, -234.000000)">
            <g id="Group-2" transform="translate(199.000000, 236.000000)">
                <g id="Rectangle-Copy">
                    <use fill="black" fill-opacity="1" filter="url(#filter-3)" xlink:href="#path-2"></use>
                    <use fill="url(#linearGradient-1)" fill-rule="evenodd" xlink:href="#path-2"></use>
                </g>
                <g id="noun_levels_3499371-copy-2" transform="translate(67.000000, 38.000000)" fill="#FFFFFF" fill-rule="nonzero" stroke="#FFFFFF" stroke-width="0.3">
                    <path d="M18.8860772,117.999931 L5.06523144,117.999931 C2.26583167,117.99187 0,115.262541 0,111.898508 L0,106.101498 C0,102.737466 2.26583167,100.008136 5.06523144,100.000072 L18.8860772,100.000072 C21.6782177,99.983905 23.9598825,102.674036 23.9997785,106.029036 L23.9997785,111.826046 C24.012478,113.463126 23.478672,115.03809 22.5175992,116.198454 C21.5565263,117.358818 20.2484333,118.007694 18.8860772,117.999931 Z M5.06523144,104.27544 C4.26401311,104.283398 3.6179951,105.066183 3.61802246,106.029036 L3.61802246,111.826046 C3.60166392,112.301046 3.74649425,112.763672 4.01933138,113.107933 C4.2921685,113.452193 4.66962847,113.648581 5.06523144,113.652104 L18.8860772,113.652104 C19.2856875,113.664165 19.6719203,113.478707 19.9545766,113.13904 C20.2372328,112.799374 20.3915634,112.33524 20.3815265,111.855031 L20.3815265,106.058021 C20.3815265,105.592938 20.2277825,105.146905 19.9541165,104.818042 C19.6804505,104.489179 19.3092797,104.304425 18.9222575,104.304425 L5.06523144,104.27544 Z" id="Shape"></path>
                    <path d="M18.8860772,91.9999311 L5.06523144,91.9999311 C2.26583167,91.9918705 0,89.2625408 0,85.8985082 L0,80.1014984 C0,76.7374659 2.26583167,74.0081362 5.06523144,74.0000725 L18.8860772,74.0000725 C21.6782177,73.983905 23.9598825,76.6740355 23.9997785,80.0290358 L23.9997785,85.8260456 C24.012478,87.4631263 23.478672,89.0380904 22.5175992,90.198454 C21.5565263,91.3588177 20.2484333,92.0076938 18.8860772,91.9999311 Z M5.06523144,78.2754404 C4.26401311,78.2833978 3.6179951,79.0661834 3.61802246,80.0290358 L3.61802246,85.8260456 C3.60166392,86.3010459 3.74649425,86.7636724 4.01933138,87.1079326 C4.2921685,87.4521927 4.66962847,87.6485813 5.06523144,87.6521037 L18.8860772,87.6521037 C19.2856875,87.6641649 19.6719203,87.4787067 19.9545766,87.1390403 C20.2372328,86.7993739 20.3915634,86.3352401 20.3815265,85.8550307 L20.3815265,80.0580209 C20.3815265,79.0895368 19.7281895,78.3044254 18.9222575,78.3044254 L5.06523144,78.2754404 Z" id="Shape"></path>
                    <path d="M18.8860772,67.9999311 L5.06523144,67.9999311 C2.26583167,67.9918705 0,65.2625408 0,61.8985082 L0,56.1014984 C0,52.7374659 2.26583167,50.0081362 5.06523144,50.0000725 L18.8860772,50.0000725 C21.6782177,49.983905 23.9598825,52.6740355 23.9997785,56.0290358 L23.9997785,61.8260456 C24.012478,63.4631263 23.478672,65.0380904 22.5175992,66.198454 C21.5565263,67.3588177 20.2484333,68.0076938 18.8860772,67.9999311 Z M5.06523144,54.2754404 C4.26401311,54.2833978 3.6179951,55.0661834 3.61802246,56.0290358 L3.61802246,61.8260456 C3.60166392,62.3010459 3.74649425,62.7636724 4.01933138,63.1079326 C4.2921685,63.4521927 4.66962847,63.6485813 5.06523144,63.6521037 L18.8860772,63.6521037 C19.2856875,63.6641649 19.6719203,63.4787067 19.9545766,63.1390403 C20.2372328,62.7993739 20.3915634,62.3352401 20.3815265,61.8550307 L20.3815265,56.0580209 C20.3815265,55.5929384 20.2277825,55.1469046 19.9541165,54.8180416 C19.6804505,54.4891787 19.3092797,54.3044254 18.9222575,54.3044254 L5.06523144,54.2754404 Z" id="Shape"></path>
                    <path d="M49.9223534,118 L36.0776466,118 C33.2763394,117.992064 31.0070805,115.275949 31.0002211,111.923015 L31.0002211,106.149158 C30.9875928,104.526131 31.5164429,102.96408 32.4696496,101.80962 C33.4228563,100.655161 34.7215838,100.003773 36.0776466,100 L49.9223534,100 C52.7236606,100.007936 54.9929195,102.724051 54.9997789,106.076985 L54.9997789,111.850842 C55.0124072,113.473869 54.4835571,115.03592 53.5303504,116.19038 C52.5771437,117.344839 51.2784162,117.996227 49.9223534,118 Z M36.0776466,104.330393 C35.2717297,104.330393 34.6184049,105.112369 34.6184049,106.076985 L34.6184049,111.850842 C34.6019711,112.326441 34.7484264,112.789465 35.0238887,113.132794 C35.299351,113.476124 35.679954,113.670014 36.0776466,113.669608 L49.9223534,113.669608 C50.3093684,113.669608 50.6805322,113.485592 50.9541931,113.158042 C51.227854,112.830493 51.3815951,112.38624 51.3815951,111.923015 L51.3815951,106.149158 C51.3815951,105.685933 51.227854,105.241681 50.9541931,104.914131 C50.6805322,104.586582 50.3093684,104.402566 49.9223534,104.402566 L36.0776466,104.330393 Z" id="Shape"></path>
                    <path d="M49.9223534,92 L36.0776466,92 C33.2763394,91.992064 31.0070805,89.2759486 31.0002211,85.9230152 L31.0002211,80.149158 C30.9875928,78.5261314 31.5164429,76.96408 32.4696496,75.8096203 C33.4228563,74.6551606 34.7215838,74.0037733 36.0776466,74 L49.9223534,74 C52.7236606,74.007936 54.9929195,76.7240514 54.9997789,80.0769848 L54.9997789,85.850842 C55.0124072,87.4738686 54.4835571,89.03592 53.5303504,90.1903797 C52.5771437,91.3448394 51.2784162,91.9962267 49.9223534,92 Z M36.0776466,78.3303929 C35.2717297,78.3303929 34.6184049,79.1123687 34.6184049,80.0769848 L34.6184049,85.850842 C34.6019711,86.3264409 34.7484264,86.7894646 35.0238887,87.1327944 C35.299351,87.4761242 35.679954,87.6700136 36.0776466,87.6696077 L49.9223534,87.6696077 C50.7282703,87.6696077 51.3815951,86.8876313 51.3815951,85.9230152 L51.3815951,80.149158 C51.3815951,79.184542 50.7282703,78.4025662 49.9223534,78.4025662 L36.0776466,78.3303929 Z" id="Shape"></path>
                    <path d="M49.9223534,68 L36.0776466,68 C33.2763394,67.992064 31.0070805,65.2759486 31.0002211,61.9230152 L31.0002211,56.149158 C30.9875928,54.5261314 31.5164429,52.96408 32.4696496,51.8096203 C33.4228563,50.6551606 34.7215838,50.0037733 36.0776466,50 L49.9223534,50 C52.7236606,50.007936 54.9929195,52.7240514 54.9997789,56.0769848 L54.9997789,61.850842 C55.0124072,63.4738686 54.4835571,65.03592 53.5303504,66.1903797 C52.5771437,67.3448394 51.2784162,67.9962267 49.9223534,68 Z M36.0776466,54.3303929 C35.2717297,54.3303929 34.6184049,55.1123687 34.6184049,56.0769848 L34.6184049,61.850842 C34.6019711,62.3264409 34.7484264,62.7894646 35.0238887,63.1327944 C35.299351,63.4761242 35.679954,63.6700136 36.0776466,63.6696077 L49.9223534,63.6696077 C50.3093684,63.6696077 50.6805322,63.4855917 50.9541931,63.1580422 C51.227854,62.8304927 51.3815951,62.3862402 51.3815951,61.9230152 L51.3815951,56.149158 C51.3815951,55.685933 51.227854,55.2416806 50.9541931,54.9141311 C50.6805322,54.5865816 50.3093684,54.4025662 49.9223534,54.4025662 L36.0776466,54.3303929 Z" id="Shape"></path>
                    <path d="M49.9223534,44 L36.0776466,44 C33.2763394,43.992064 31.0070805,41.2759486 31.0002211,37.9230152 L31.0002211,32.149158 C30.9875928,30.5261314 31.5164429,28.96408 32.4696496,27.8096203 C33.4228563,26.6551606 34.7215838,26.0037733 36.0776466,26 L49.9223534,26 C52.7236606,26.007936 54.9929195,28.7240514 54.9997789,32.0769848 L54.9997789,37.850842 C55.0124072,39.4738686 54.4835571,41.03592 53.5303504,42.1903797 C52.5771437,43.3448394 51.2784162,43.9962267 49.9223534,44 Z M36.0776466,30.3303929 C35.2717297,30.3303929 34.6184049,31.1123687 34.6184049,32.0769848 L34.6184049,37.850842 C34.6019711,38.3264409 34.7484264,38.7894646 35.0238887,39.1327944 C35.299351,39.4761242 35.679954,39.6700136 36.0776466,39.6696077 L49.9223534,39.6696077 C50.3093684,39.6696077 50.6805322,39.4855917 50.9541931,39.1580422 C51.227854,38.8304927 51.3815951,38.3862402 51.3815951,37.9230152 L51.3815951,32.149158 C51.3815951,31.685933 51.227854,31.2416806 50.9541931,30.9141311 C50.6805322,30.5865816 50.3093684,30.4025662 49.9223534,30.4025662 L36.0776466,30.3303929 Z" id="Shape"></path>
                    <path d="M49.9223534,18 L36.0776466,18 C33.2763394,17.992064 31.0070805,15.2759486 31.0002211,11.9230152 L31.0002211,6.14915798 C30.9875928,4.52613139 31.5164429,2.96407998 32.4696496,1.80962029 C33.4228563,0.655160593 34.7215838,0.00377325034 36.0776466,-6.75015599e-14 L49.9223534,-6.75015599e-14 C52.7236606,0.00793597017 54.9929195,2.72405144 54.9997789,6.07698476 L54.9997789,11.850842 C55.0124072,13.4738686 54.4835571,15.03592 53.5303504,16.1903797 C52.5771437,17.3448394 51.2784162,17.9962267 49.9223534,18 Z M36.0776466,4.33039294 C35.2717297,4.33039294 34.6184049,5.11236874 34.6184049,6.07698476 L34.6184049,11.850842 C34.6019711,12.3264409 34.7484264,12.7894646 35.0238887,13.1327944 C35.299351,13.4761242 35.679954,13.6700136 36.0776466,13.6696077 L49.9223534,13.6696077 C50.3093684,13.6696077 50.6805322,13.4855917 50.9541931,13.1580422 C51.227854,12.8304927 51.3815951,12.3862402 51.3815951,11.9230152 L51.3815951,6.14915798 C51.3815951,5.68593303 51.227854,5.24168056 50.9541931,4.91413106 C50.6805322,4.58658155 50.3093684,4.40256616 49.9223534,4.40256616 L36.0776466,4.33039294 Z" id="Shape"></path>
                    <path d="M78.9149472,118 L65.0729743,118 C62.2692953,117.992009 60,115.262636 60,111.898551 L60,106.101449 C60,102.737364 62.2692953,100.007991 65.0729743,100 L78.9149472,100 C81.7205891,100.007968 83.9933594,102.735018 84,106.101449 L84,111.898551 C83.9933594,115.264982 81.7205891,117.992032 78.9149472,118 L78.9149472,118 Z M65.0729743,104.275362 C64.2705312,104.28332 63.6235257,105.066118 63.6235531,106.028986 L63.6235531,111.826087 C63.6071696,112.301095 63.7522213,112.763729 64.0254755,113.107994 C64.2987297,113.45226 64.6767666,113.648651 65.0729743,113.652174 L78.9149472,113.652174 C79.7221112,113.652174 80.3764469,112.86705 80.3764469,111.898551 L80.3764469,106.101449 C80.3764469,105.13295 79.7221112,104.347826 78.9149472,104.347826 L65.0729743,104.275362 Z" id="Shape"></path>
                    <path d="M78.9149472,92 L65.0729743,92 C62.2692953,91.9920093 60,89.2626364 60,85.8985507 L60,80.1014493 C60,76.7373636 62.2692953,74.0079907 65.0729743,74 L78.9149472,74 C81.7205891,74.0079679 83.9933594,76.7350178 84,80.1014493 L84,85.8985507 C83.9933594,89.2649822 81.7205891,91.9920321 78.9149472,92 L78.9149472,92 Z M65.0729743,78.2753623 C64.2705312,78.2833199 63.6235257,79.0661178 63.6235531,80.0289855 L63.6235531,85.826087 C63.6071696,86.3010948 63.7522213,86.7637285 64.0254755,87.1079942 C64.2987297,87.4522598 64.6767666,87.6486515 65.0729743,87.6521739 L78.9149472,87.6521739 C79.7221112,87.6521739 80.3764469,86.8670501 80.3764469,85.8985507 L80.3764469,80.1014493 C80.3764469,79.1329499 79.7221112,78.3478261 78.9149472,78.3478261 L65.0729743,78.2753623 Z" id="Shape"></path>
                    <path d="M109.914947,118 L96.0850528,118 C93.2794109,117.992032 91.0066406,115.264982 91,111.898551 L91,106.101449 C91.0066406,102.735018 93.2794109,100.007968 96.0850528,100 L109.914947,100 C112.723344,100 115,102.731712 115,106.101449 L115,111.898551 C115,115.268288 112.723344,118 109.914947,118 L109.914947,118 Z M96.0850528,104.275362 C95.2778888,104.275362 94.6235531,105.060486 94.6235531,106.028986 L94.6235531,111.826087 C94.6070939,112.3036 94.7537758,112.768488 95.0296643,113.1132 C95.3055529,113.457912 95.6867448,113.652582 96.0850528,113.652175 L109.914947,113.652175 C110.722111,113.652175 111.376447,112.86705 111.376447,111.898551 L111.376447,106.101449 C111.376447,105.13295 110.722111,104.347826 109.914947,104.347826 L96.0850528,104.275362 Z" id="Shape"></path>
                    <path d="M109.914947,92 L96.0850528,92 C93.2794109,91.9920321 91.0066406,89.2649822 91,85.8985507 L91,80.1014493 C91.0066406,76.7350178 93.2794109,74.0079679 96.0850528,74 L109.914947,74 C112.723344,74 115,76.7317119 115,80.1014493 L115,85.8985507 C115,89.2682881 112.723344,92 109.914947,92 L109.914947,92 Z M96.0850528,78.2753623 C95.2778888,78.2753623 94.6235531,79.0604862 94.6235531,80.0289855 L94.6235531,85.826087 C94.6070939,86.3036005 94.7537758,86.7684882 95.0296643,87.1132002 C95.3055529,87.4579122 95.6867448,87.6525821 96.0850528,87.6521746 L109.914947,87.6521746 C110.722111,87.6521746 111.376447,86.8670501 111.376447,85.8985507 L111.376447,80.1014493 C111.376447,79.1329499 110.722111,78.3478261 109.914947,78.3478261 L96.0850528,78.2753623 Z" id="Shape"></path>
                    <path d="M109.914947,68 L96.0850528,68 C93.2794109,67.9920321 91.0066406,65.2649822 91,61.8985507 L91,56.1014493 C91.0066406,52.7350178 93.2794109,50.0079679 96.0850528,50 L109.914947,50 C112.723344,50 115,52.7317119 115,56.1014493 L115,61.8985507 C115,65.2682881 112.723344,68 109.914947,68 L109.914947,68 Z M96.0850528,54.2753623 C95.2778888,54.2753623 94.6235531,55.0604862 94.6235531,56.0289855 L94.6235531,61.826087 C94.6070939,62.3036005 94.7537758,62.7684882 95.0296643,63.1132002 C95.3055529,63.4579122 95.6867448,63.6525821 96.0850528,63.6521746 L109.914947,63.6521746 C110.722111,63.6521746 111.376447,62.8670501 111.376447,61.8985507 L111.376447,56.1014493 C111.376447,55.1329499 110.722111,54.3478261 109.914947,54.3478261 L96.0850528,54.2753623 Z" id="Shape"></path>
                </g>
            </g>
        </g>
    </g>
</svg>